<?xml version="1.0" encoding="UTF-8"?>
<svg id="Layer_1" data-name="Layer 1" xmlns="http://www.w3.org/2000/svg" viewBox="0 0 150 150">
  <defs>
    <style>
      .cls-1 {
        fill: #ffff56;
      }

      .cls-1, .cls-2 {
        stroke-width: 0px;
      }

      .cls-2 {
        fill: #fff00d;
      }
    </style>
  </defs>
  <polygon class="cls-1" points="44.76 92.27 2.24 58.8 56.31 56.72 75 5.94 93.69 56.72 147.76 58.8 105.24 92.27 119.97 144.34 75 114.24 30.03 144.34 44.76 92.27"/>
  <path class="cls-2" d="M75,7.39l18.11,49.19.23.63.67.03,52.38,2.02-41.19,32.42-.53.41.18.64,14.26,50.44-43.56-29.15-.56-.37-.56.37-43.56,29.15,14.26-50.44.18-.64-.53-.41L3.62,59.25l52.38-2.02.67-.03.23-.63L75,7.39M75,4.49l-19.04,51.74L.86,58.36l43.32,34.1-15,53.05,45.82-30.66,45.82,30.66-15-53.05,43.32-34.1-55.09-2.12L75,4.49h0Z"/>
</svg>